<svg width="125" height="125" viewBox="0 0 125 125" fill="none" xmlns="http://www.w3.org/2000/svg">
<g filter="url(#filter0_d)">
<path opacity="0.24728" d="M80.4632 35.7386L79.6455 36.7541C80.3633 35.8679 81.4033 35.3028 82.5372 35.1833C83.1712 35.1134 83.8124 35.1947 84.4081 35.4198C84.8717 35.5757 85.3032 35.8111 85.6852 36.1152C86.5672 36.8284 87.1279 37.8636 87.2434 38.9922C87.3589 40.1208 87.0199 41.2504 86.3012 42.1311L79.2297 50.824C79.9458 49.935 80.9918 49.3726 82.1285 49.2657C82.7594 49.1864 83.3994 49.263 83.9923 49.4897C84.5532 49.6859 85.0681 49.9938 85.5059 50.3945C87.1199 52.035 87.2195 54.6342 85.7368 56.4021L64.0736 83.0189C63.6285 83.5419 63.1551 84.0406 62.6563 84.5124L62.6438 84.5196C59.9433 87.2281 56.4051 88.9453 52.6075 89.3923C51.8479 89.4556 51.1496 89.8346 50.6831 90.4371L48.4671 93.1492L47.9053 93.8354C47.6528 94.1236 47.3727 94.3848 47.0676 94.616C44.5657 96.7191 37.7066 101.403 36.6506 100.547L25.6004 81.4078C24.5786 80.5823 24.6721 78.1408 25.3076 76.6381C25.4179 76.3656 25.5641 76.1094 25.743 75.8757L26.0716 75.4719C27.5253 73.6996 28.1976 71.416 27.9349 69.1446C27.4925 65.3166 27.1236 59.0427 28.6057 54.2853C30.9013 46.9335 34.1746 37.8981 33.7598 33.8899C33.7465 33.7883 33.7425 33.6858 33.7485 33.5836C33.5487 29.8628 37.434 29.497 39.5861 31.2511C41.7988 33.0524 41.2435 38.7564 40.7511 43.8816C40.5833 45.5227 40.6073 47.1775 40.8229 48.8121C40.9551 49.7706 41.5684 50.5945 42.4492 50.9964C43.3305 51.398 44.3573 51.3222 45.1724 50.7958C45.9595 50.2864 46.695 49.702 47.3687 49.0499C48.021 48.4224 48.6347 47.7553 49.2046 47.0517L64.2903 28.496L64.3028 28.4888L66.3515 25.9727C67.4926 24.5572 69.4072 24.0208 71.1145 24.6389C71.5766 24.7912 72.0054 25.0297 72.3787 25.341C73.8735 26.5536 74.3738 28.6132 73.6034 30.3799C73.4508 30.7363 73.2485 31.0695 73.002 31.3693L74.5544 29.4525L74.5669 29.4453L76.6153 26.9287C77.7563 25.5132 79.6713 24.9773 81.3783 25.5949C81.8417 25.7441 82.2714 25.9829 82.6428 26.2975C83.5249 27.0108 84.0855 28.0459 84.201 29.1746C84.3166 30.3032 83.9778 31.4318 83.2589 32.3134L80.4632 35.7386Z" fill="#777"/>
<path d="M80.0824 35.7841L76.4908 40.2178C77.2042 39.333 78.2406 38.7702 79.3712 38.6537C80.0033 38.5865 80.6431 38.6696 81.2379 38.8966C81.7004 39.0534 82.1321 39.2899 82.5134 39.5956C83.3973 40.3129 83.9593 41.3528 84.0756 42.4854C84.1921 43.6171 83.8522 44.7471 83.1325 45.6249L76.1161 54.2971C76.8288 53.4097 77.87 52.8501 79.0037 52.7456C79.6322 52.6683 80.2712 52.7474 80.8632 52.976C81.4221 53.1708 81.9339 53.4834 82.3628 53.8923C83.9873 55.5298 84.0998 58.1347 82.6226 59.8979L62.5808 84.6393L62.5684 84.6465L61.0905 86.4736C61.0905 86.4736 56.2452 92.4394 49.6713 92.8186C49.2356 92.8541 48.8162 93.0003 48.4522 93.2422C48.1798 93.4055 47.9396 93.6167 47.7432 93.8661L47.0604 94.706C44.5709 96.8036 37.7425 101.472 36.6867 100.612L25.61 81.4269C24.5885 80.5978 24.6748 78.1547 25.3044 76.6527C25.4137 76.3803 25.5588 76.1243 25.7365 75.891L26.0632 75.4878C27.5081 73.7183 28.1722 71.4349 27.9037 69.161C27.4515 65.3289 27.0658 59.0493 28.5305 54.2925C30.7993 46.9418 34.0387 37.9089 33.6135 33.8965C33.5999 33.7948 33.5957 33.6922 33.6014 33.59C34.6601 33.5733 35.6923 33.9292 36.518 34.5963C38.7301 36.4053 38.1929 42.1126 37.7153 47.2399C37.5466 48.8816 37.5755 50.5383 37.801 52.1744C37.9332 53.1361 38.5468 53.9642 39.4282 54.3694C40.3088 54.7743 41.3342 54.6998 42.1452 54.1719C43.6747 53.1514 45.0292 51.8904 46.1564 50.4365L47.231 49.1067L63.1999 29.3905C63.4497 29.0876 63.7357 28.8175 64.0512 28.5854L64.0636 28.5782C65.194 27.7897 66.6378 27.6027 67.9351 28.0761C68.3999 28.2278 68.8322 28.4655 69.2109 28.7757C71.0469 30.2722 71.3327 32.9712 69.8491 34.8106L73.346 30.4973L73.4407 30.3769C73.6905 30.0741 73.9761 29.8034 74.292 29.5719L74.3044 29.5647C75.4348 28.7762 76.8783 28.5887 78.1759 29.0626C78.6416 29.2107 79.0751 29.4477 79.4513 29.7616C80.3332 30.4779 80.8953 31.5155 81.0138 32.6452C81.1323 33.775 80.7973 34.9045 80.0824 35.7841Z" fill="#EDF4F8"/>
<path opacity="0.246931" d="M103.77 62.3238C104.953 64.3727 104.246 66.9951 102.191 68.1814L97.2292 71.046C98.2159 70.4763 99.3885 70.3215 100.487 70.6155C101.105 70.7748 101.677 71.0779 102.155 71.4993C102.533 71.8078 102.851 72.1827 103.092 72.6071C104.275 74.6555 103.568 77.2779 101.512 78.4645L91.8011 84.0712C92.7873 83.5018 93.9599 83.347 95.0588 83.6416C95.6769 83.8009 96.2483 84.1034 96.7262 84.5248C97.1824 84.9044 97.5515 85.3772 97.8077 85.9115C98.7424 88.0208 97.9014 90.4978 95.873 91.6116L66.1055 108.798C66.1055 108.798 59.4206 112.657 53.1165 110.676C52.3817 110.464 51.5906 110.567 50.9341 110.963L47.1261 113.161C45.7555 113.947 44.0099 113.482 43.2178 112.121L31.7963 92.3382C31.1708 91.2534 31.327 89.8864 32.182 88.9664C32.3744 88.7542 32.5998 88.5742 32.8492 88.4332L33.3085 88.168C35.2982 87.0223 36.7429 85.1242 37.3142 82.9039C38.2683 79.1714 40.1721 73.1594 43.2622 69.2322C48.0362 63.1788 54.4556 54.2466 55.5085 50.3416C55.5348 50.2441 55.5735 50.1395 55.5998 50.0421C56.7764 46.4943 60.5056 47.5395 61.8973 49.9501C63.325 52.4229 60.6268 59.2067 58.3333 63.8279C57.5907 65.3057 57.0195 66.864 56.6314 68.4706C56.4126 69.4173 56.6922 70.409 57.373 71.1004C58.0535 71.7926 59.0416 72.0893 59.9934 71.8877C61.7948 71.4755 63.5186 70.7753 65.0973 69.8148L88.6631 56.2091C90.2357 55.2906 92.2162 55.473 93.5888 56.6623C93.9664 56.9703 94.2846 57.3458 94.5256 57.7696C95.7085 59.8185 95.0014 62.4409 92.9461 63.6276L97.9078 60.7629C99.4803 59.8453 101.46 60.0272 102.833 61.2165C103.212 61.5247 103.529 61.8999 103.77 62.3238Z" fill="#777"/>
<path d="M99.8626 64.5498C101.047 66.6011 100.345 69.2232 98.2959 70.4063L93.3483 73.2627C94.3324 72.6946 95.5021 72.5421 96.5993 72.838C97.2165 72.9984 97.7877 73.3025 98.2656 73.7248C98.644 74.0337 98.9614 74.4096 99.2029 74.8345C100.387 76.8853 99.6856 79.507 97.6365 80.6901L87.9514 86.2817C88.9355 85.7136 90.1052 85.5611 91.2027 85.8576C91.82 86.018 92.3909 86.3215 92.8687 86.7438C93.3252 87.1239 93.694 87.5979 93.9512 88.1324C94.8873 90.244 94.0526 92.7198 92.0296 93.8304L66.054 108.827C66.054 108.827 59.3875 112.676 53.0911 110.683C52.3572 110.47 51.5677 110.572 50.913 110.967L47.1154 113.159C45.7486 113.943 44.0053 113.475 43.2123 112.112L31.7771 92.3057C31.1508 91.2196 31.3045 89.8525 32.1564 88.9338C32.3481 88.7219 32.5728 88.5423 32.8215 88.4017L33.2796 88.1372C35.2638 86.9947 36.7027 85.0986 37.2692 82.8788C38.2153 79.1471 40.1055 73.1371 43.1834 69.2143C47.9388 63.1678 54.3317 54.2446 55.376 50.3406C55.4021 50.2432 55.4406 50.1386 55.4667 50.0412C56.5536 50.3808 57.4728 51.1164 58.042 52.1024C59.4714 54.5782 56.7895 61.3588 54.5085 65.9768C53.7691 67.4539 53.2022 69.0113 52.8175 70.6176C52.6007 71.564 52.8815 72.5564 53.5617 73.2495C54.2428 73.9427 55.229 74.2414 56.1794 74.0411C57.9764 73.6322 59.6959 72.9348 61.2708 71.9765L84.772 58.4081C86.3397 57.4923 88.3171 57.6782 89.6892 58.8701C90.0673 59.1785 90.385 59.5549 90.6263 59.9793C91.8106 62.0306 91.1093 64.6523 89.0601 65.8354L94.0077 62.9789C95.5758 62.0638 97.5534 62.2488 98.9249 63.441C99.3033 63.7499 99.6208 64.1257 99.8626 64.5498Z" fill="#EDF4F8"/>
<path d="M31.7767 92.1057L43.2328 111.948C44.0273 113.314 45.7727 113.784 47.1409 112.999L50.8552 110.855C49.4871 111.639 47.741 111.17 46.9472 109.804L29.4048 79.4194C28.3806 78.5892 28.4689 76.1402 29.1016 74.6342C29.2109 74.3614 29.3572 74.1044 29.5356 73.8704L29.8631 73.4664C31.3139 71.6916 31.9823 69.402 31.7146 67.123C31.2632 63.2825 30.8813 56.9879 32.3536 52.2192C34.6356 44.8492 37.8913 35.7929 37.4682 31.7711C37.4541 31.6695 37.4499 31.5667 37.4557 31.4641C37.4329 31.0883 37.461 30.7102 37.5389 30.3413C36.566 30.037 35.5055 30.2549 34.7331 30.9196C33.9613 31.584 33.5863 32.6006 33.7419 33.6083C33.7361 33.7108 33.7403 33.8136 33.7538 33.9156C34.1775 37.9371 30.9213 46.9937 28.6399 54.3634C27.167 59.1324 27.5495 65.4266 28.0003 69.2675C28.268 71.5465 27.6001 73.8358 26.1493 75.6105L25.8213 76.0149C25.6428 76.2489 25.4971 76.5056 25.3873 76.7787C24.7545 78.2847 24.6663 80.7337 25.6904 81.5639L31.7767 92.1057Z" fill="white"/>
<path d="M47.3455 49.0177L47.3022 49.055C47.88 49.0767 48.4454 48.9254 48.9296 48.6198C49.7423 48.0911 50.4996 47.4811 51.1909 46.7976" fill="white"/>
<path d="M50.8089 110.881C51.5349 110.444 52.4036 110.32 53.2052 110.536L50.8089 110.881Z" fill="white"/>
<path d="M35.0346 34.1011C35.1158 35.7852 34.9632 37.4704 34.5818 39.1097C34.2627 40.6694 33.8678 42.1818 33.45 43.6805C32.6057 46.6716 31.6537 49.6069 30.75 52.5262L30.0328 54.8599L27.3241 54.0194L28.0528 51.6618C28.9661 48.7241 29.9052 45.8105 30.7295 42.8919C31.135 41.4341 31.5159 39.9749 31.8117 38.5248C32.1294 37.1696 32.2682 35.7772 32.2256 34.3835L35.0346 34.1011Z" fill="white"/>
<path d="M84.8671 15.6646C84.2854 15.1343 83.3842 15.1743 82.8521 15.7542L81.5206 17.2108C81.1501 17.5826 81.0128 18.1269 81.1629 18.6301C81.3134 19.1329 81.7274 19.5123 82.2415 19.6195C82.7554 19.726 83.2863 19.5418 83.6246 19.1403L84.9561 17.6837C85.2124 17.4043 85.3464 17.0348 85.3301 16.656C85.3138 16.2773 85.1471 15.9205 84.8671 15.6646Z" fill="#777"/>
<path d="M78.0903 11.378C77.7195 11.3006 77.333 11.3742 77.0165 11.5819C76.6994 11.7899 76.4778 12.1149 76.401 12.4855L76.0076 14.3768C75.9043 14.8767 76.0745 15.3939 76.455 15.7337C76.8361 16.0733 77.3692 16.1845 77.8539 16.0248C78.3386 15.865 78.7012 15.4586 78.8054 14.9589L79.1981 13.0679C79.2755 12.697 79.2019 12.3106 78.9939 11.9935C78.7868 11.6766 78.4612 11.4553 78.0903 11.378Z" fill="#777"/>
<path d="M69.2303 14.8895L69.8771 16.7096C70.1414 17.4511 70.9557 17.8388 71.6974 17.5774C71.7797 17.5488 71.8587 17.513 71.9337 17.4689C72.5309 17.1234 72.7954 16.4005 72.563 15.7509L71.9139 13.9321C71.6487 13.1889 70.8309 12.8017 70.0877 13.0669C69.3443 13.3331 68.9571 14.1509 69.2229 14.8937L69.2303 14.8895Z" fill="#777"/>
<path d="M115.585 71.5917C116.196 71.2389 116.458 70.4933 116.202 69.836C115.946 69.1787 115.249 68.8065 114.56 68.9595L112.633 69.3843C111.883 69.574 111.421 70.3251 111.589 71.0797C111.756 71.834 112.494 72.3183 113.253 72.1723L115.18 71.7475C115.322 71.7167 115.459 71.6637 115.585 71.5917Z" fill="#777"/>
<path d="M112.04 76.5574C111.921 76.9173 111.951 77.3096 112.121 77.6483C112.292 77.9864 112.59 78.2434 112.949 78.3618L114.783 78.9672C115.268 79.1268 115.802 79.0159 116.182 78.6761C116.563 78.3362 116.734 77.8185 116.63 77.3191C116.526 76.8197 116.163 76.4137 115.678 76.2532L113.844 75.6478C113.484 75.5294 113.092 75.5588 112.754 75.7291C112.415 75.8997 112.159 76.1982 112.04 76.5574Z" fill="#777"/>
<path d="M108.03 80.4902C107.432 81.0021 107.361 81.9012 107.871 82.5008L109.122 83.974C109.569 84.4992 110.327 84.6304 110.924 84.2863C111 84.2434 111.07 84.1929 111.136 84.1359C111.733 83.6243 111.805 82.7252 111.295 82.1256L110.043 80.6529C109.532 80.052 108.631 79.9795 108.03 80.4902Z" fill="#777"/>
<path fill-rule="evenodd" clip-rule="evenodd" d="M51.5759 111.953L47.7775 114.146C45.7279 115.33 43.107 114.627 41.9233 112.577L23.6099 80.8574C22.7206 79.3328 22.8638 77.4175 23.9704 76.0423L25.0656 74.6904C26.2554 73.2121 26.8018 71.3177 26.5811 69.4328C26.0566 65.0675 25.746 58.8428 27.2473 53.9724L27.99 51.5954L28.4214 50.2318C28.6599 49.4794 29.4631 49.0632 30.2155 49.3017C30.9678 49.5401 31.384 50.3434 31.1452 51.0952L30.7151 52.4558L29.9809 54.8097C28.5564 59.4258 29.0159 65.7436 29.4199 69.0919C29.7278 71.748 28.9549 74.4165 27.2744 76.4968L26.204 77.8276C25.836 78.2847 25.7878 78.9219 26.0842 79.4289L30.9649 87.8825C31.2767 87.507 31.6507 87.1883 32.0704 86.9407L32.5285 86.6762C34.1774 85.7235 35.3737 84.1478 35.8501 82.3037C36.9333 78.0432 38.8844 72.1248 42.0333 68.1162C47.3197 61.3988 53.0596 53.1124 53.9636 49.7384C54.3028 47.8814 55.7703 46.4368 57.6327 46.1272C59.8192 45.962 61.9005 47.0884 62.9577 49.0099C64.8568 52.2991 61.5896 59.9689 59.4768 64.2522C58.7847 65.6274 58.2508 67.0766 57.8862 68.5715C57.7727 69.0342 57.9066 69.5225 58.2413 69.8616C58.587 70.2223 59.0951 70.379 59.5843 70.2755C61.2272 69.8933 62.7989 69.2517 64.2399 68.3745L83.1316 57.4673C83.1681 57.3722 83.2154 57.2815 83.2728 57.1978L84.6017 55.5562C85.6259 54.3796 85.578 52.6146 84.4913 51.4962C83.8869 50.9216 83.0621 50.6413 82.2332 50.7279C81.4933 50.8002 80.8132 51.1641 80.3423 51.7388L80.32 51.7683L80.3138 51.7719L74.4868 58.9826C74.3761 59.1191 74.2418 59.2344 74.0894 59.3223C73.4932 59.6681 72.7351 59.5387 72.2867 59.0145C71.8392 58.4905 71.8294 57.7215 72.264 57.1859L78.0951 49.981L78.1267 49.9417L85.128 41.2819C85.9178 40.3087 85.9815 38.9346 85.2841 37.8928C85.13 37.6586 84.9397 37.4505 84.7206 37.2765C84.1266 36.7903 83.362 36.5635 82.5986 36.6471C81.8565 36.7206 81.1735 37.0862 80.701 37.6634L80.6883 37.6805L80.6707 37.6907L68.8119 52.4048C68.7015 52.5418 68.5661 52.6578 68.4134 52.7452C67.8172 53.0924 67.058 52.9636 66.6091 52.4398C66.1601 51.9159 66.1505 51.146 66.5851 50.6104L78.4542 35.8827L78.4774 35.8693L78.4876 35.8634L82.051 31.4441C82.4737 30.9259 82.6931 30.2714 82.6677 29.6035C82.6648 28.7549 82.2792 27.9536 81.6185 27.4214C80.3861 26.4377 78.5915 26.6318 77.5977 27.8558L74.0243 32.2839L66.3081 42.2912C65.8262 42.916 64.9293 43.0314 64.305 42.5491C63.6801 42.0672 63.5648 41.1702 64.0467 40.5454L71.7718 30.5262L71.7843 30.519L71.7913 30.5051C72.4339 29.7098 72.6024 28.6323 72.2352 27.6784C71.8671 26.7243 71.0185 26.0393 70.0087 25.8808C68.999 25.7222 67.981 26.1144 67.3385 26.9097L50.2873 48.0242C49.0622 49.5984 47.5939 50.9672 45.9377 52.0797C45.2537 52.5025 44.4669 52.7287 43.6629 52.7331C44.1991 53.7193 44.8234 54.6554 45.5263 55.5302C46.0208 56.1448 45.923 57.0439 45.3085 57.5385C45.2506 57.5847 45.1895 57.6268 45.1255 57.6637C44.5153 58.0153 43.7401 57.8693 43.2996 57.3209C41.2485 54.9977 39.8887 52.1469 39.3731 49.0919L39.3623 48.9985C39.1498 47.2847 39.1247 45.5526 39.2866 43.8334L39.3018 43.6713C39.681 39.5047 40.1991 33.7997 38.5902 32.4988C37.8026 31.8253 36.709 31.6405 35.744 32.0172C35.2303 32.3137 35.0005 32.941 35.0991 33.9005C35.1701 35.9617 34.9328 38.0227 34.3958 40.0144C34.3133 40.3882 34.0818 40.713 33.756 40.9139C33.4294 41.1145 33.0351 41.1745 32.6641 41.0799C31.9119 40.8836 31.4486 40.1295 31.6125 39.3696C32.0708 37.6824 32.291 35.9385 32.2658 34.1907C31.8998 32.339 32.7473 30.4588 34.3772 29.5072C36.3574 28.561 38.7081 28.8605 40.3882 30.2729C43.1867 32.5348 42.6603 38.3236 42.151 43.9238L42.1508 43.9263L42.1356 44.0884C41.9925 45.6231 42.0158 47.1689 42.2055 48.698C42.2645 49.1638 42.5593 49.566 42.9854 49.7625C43.4394 49.9851 43.9782 49.9466 44.3968 49.6619C45.7912 48.7172 47.0281 47.5583 48.0603 46.2269L65.1079 25.1114C66.3881 23.5175 68.4223 22.7289 70.4425 23.0433C72.4631 23.3583 74.1608 24.728 74.8956 26.6363L75.3705 26.0503C76.8769 24.1747 79.3988 23.4459 81.6737 24.2302C83.9482 25.0139 85.486 27.1412 85.5165 29.5468C85.5578 30.8897 85.1124 32.2017 84.2613 33.2413L83.7805 33.8368C84.7756 33.9895 85.7111 34.4053 86.4914 35.0414C86.9441 35.3977 87.3356 35.8248 87.6525 36.3056C89.0389 38.3852 88.9135 41.1239 87.3432 43.068L83.4211 47.9202C84.9485 48.1567 86.3115 49.0106 87.1891 50.2822C88.0673 51.5535 88.3843 53.1306 88.064 54.6423C89.8296 53.7558 91.9276 53.8478 93.6078 54.8864C95.2885 55.9246 96.3095 57.7598 96.3065 59.7346L96.9708 59.3511C99.7039 57.7731 103.199 58.7101 104.776 61.4426C106.354 64.1757 105.418 67.6709 102.685 69.2489L102.023 69.6311C103.791 70.6515 104.881 72.5385 104.88 74.5806C104.88 76.6218 103.791 78.5087 102.022 79.5292L96.6195 82.6482C97.616 83.2207 98.4148 84.0824 98.9101 85.1194C100.173 87.9022 99.0845 91.188 96.4101 92.6663L66.7179 109.809C66.4234 109.979 59.4268 113.949 52.609 111.794C52.2572 111.703 51.8837 111.76 51.5759 111.953ZM33.9571 89.1505L33.4989 89.4151C32.8165 89.8091 32.5821 90.6821 32.9755 91.3649L44.3976 111.149C44.7923 111.832 45.6659 112.066 46.3489 111.672L50.1473 109.479C51.1486 108.886 52.3512 108.738 53.4663 109.07C59.1007 110.85 65.2287 107.37 65.2893 107.335L94.9816 90.192C96.3459 89.4542 96.9334 87.8049 96.3431 86.3704C95.9987 85.6548 95.3718 85.1144 94.6126 84.8799C93.8532 84.6448 93.0305 84.737 92.3424 85.1342L79.7601 92.3986C79.0766 92.7932 78.2029 92.5591 77.8083 91.8756C77.4139 91.1926 77.648 90.3189 78.3316 89.9243L100.6 77.0674C101.967 76.2784 102.435 74.5302 101.647 73.1642C100.858 71.7976 99.1095 71.3292 97.743 72.1182L76.7111 84.261C76.0281 84.6553 75.1544 84.4212 74.7601 83.7382C74.3654 83.0547 74.5995 82.181 75.2825 81.7867L101.264 66.7865C102.622 65.9915 103.088 64.2517 102.309 62.8836C101.52 61.5171 99.7731 61.0489 98.4065 61.8379L72.4254 76.8381C71.7424 77.2324 70.8688 76.9983 70.4745 76.3153C70.0798 75.6317 70.3139 74.7581 70.9969 74.3637L92.0288 62.221C93.3954 61.432 93.8641 59.6844 93.0751 58.3178C92.2861 56.9512 90.5383 56.4834 89.1717 57.2724L65.6655 70.8437C63.9554 71.8786 62.0895 72.6319 60.14 73.0756C58.6982 73.3681 57.2064 72.9057 56.1834 71.8479C55.1753 70.808 54.7672 69.3257 55.1013 67.9163C55.5153 66.2086 56.1229 64.5522 56.9119 62.9814C60.1881 56.3591 61.1878 51.6598 60.4829 50.4388C59.9925 49.5266 59.0407 48.9585 58.0057 48.9588C57.4041 49.0403 56.9741 49.5498 56.7231 50.4778C55.3325 55.6656 46.1134 67.5517 44.278 69.8814C41.2903 73.6867 39.4498 79.7391 38.6189 83.0082C37.9513 85.5978 36.2715 87.8113 33.9571 89.1505Z" fill="#777"/>
<path d="M66.3256 103.413L73.7491 99.1274C74.4321 98.7331 74.6662 97.8594 74.2718 97.1764C73.8772 96.4928 73.0035 96.2587 72.3205 96.6531L64.897 100.939C64.214 101.333 63.9799 102.207 64.3746 102.891C64.7689 103.574 65.6426 103.808 66.3256 103.413Z" fill="#777"/>
<path d="M61.3769 106.27C62.0445 105.883 62.2773 105.032 61.9003 104.36C61.5199 103.68 60.6699 103.424 59.9772 103.779C59.295 104.05 58.541 104.072 57.8442 103.845C57.0881 103.656 56.3201 104.109 56.118 104.861C55.9168 105.614 56.3553 106.389 57.1045 106.604C58.5192 107.043 60.0478 106.923 61.3769 106.27Z" fill="#777"/>
<path d="M39.5324 94.1484C40.2154 93.7541 40.4495 92.8805 40.0552 92.1975L39.3408 90.96C38.9464 90.277 38.0728 90.0429 37.3898 90.4373C36.7062 90.8319 36.4721 91.7056 36.8665 92.3886L37.5809 93.626C37.9752 94.309 38.8489 94.5431 39.5324 94.1484Z" fill="#777"/>
<path d="M47.3848 107.751C48.0678 107.357 48.3019 106.483 47.9076 105.8L42.9075 97.1399C42.5128 96.4563 41.6392 96.2222 40.9562 96.6165C40.2726 97.0112 40.0385 97.8848 40.4332 98.5684L45.4332 107.229C45.8276 107.912 46.7012 108.146 47.3848 107.751Z" fill="#777"/>
<path d="M32.168 43.9456C32.0818 43.9047 31.9929 43.8685 31.9018 43.8388C31.5374 43.7388 31.1484 43.7791 30.8122 43.9514C30.6502 44.0449 30.5073 44.1674 30.391 44.3139C30.0342 44.7592 29.9708 45.3727 30.2293 45.8819C30.3231 46.0445 30.4455 46.1883 30.5914 46.3064C30.7337 46.4273 30.8989 46.5185 31.0766 46.5752C31.6318 46.7417 32.2326 46.558 32.6003 46.1093C32.9674 45.661 33.0295 45.0362 32.7579 44.5239L32.6011 44.2981C32.5398 44.2233 32.469 44.1569 32.3901 44.1013C32.3239 44.039 32.249 43.9864 32.168 43.9456Z" fill="#777"/>
</g>
<defs>
<filter id="filter0_d" x="19.0312" y="11.348" width="101.629" height="111.373" filterUnits="userSpaceOnUse" color-interpolation-filters="sRGB">
<feFlood flood-opacity="0" result="BackgroundImageFix"/>
<feColorMatrix in="SourceAlpha" type="matrix" values="0 0 0 0 0 0 0 0 0 0 0 0 0 0 0 0 0 0 127 0"/>
<feOffset dy="4"/>
<feGaussianBlur stdDeviation="2"/>
<feColorMatrix type="matrix" values="0 0 0 0 0 0 0 0 0 0 0 0 0 0 0 0 0 0 0.25 0"/>
<feBlend mode="normal" in2="BackgroundImageFix" result="effect1_dropShadow"/>
<feBlend mode="normal" in="SourceGraphic" in2="effect1_dropShadow" result="shape"/>
</filter>
</defs>
</svg>

